<?xml version="1.0" encoding="UTF-8" standalone="no"?>
<svg
   xmlns:dc="http://purl.org/dc/elements/1.1/"
   xmlns:cc="http://creativecommons.org/ns#"
   xmlns:rdf="http://www.w3.org/1999/02/22-rdf-syntax-ns#"
   xmlns:svg="http://www.w3.org/2000/svg"
   xmlns="http://www.w3.org/2000/svg"
   xmlns:sodipodi="http://sodipodi.sourceforge.net/DTD/sodipodi-0.dtd"
   xmlns:inkscape="http://www.inkscape.org/namespaces/inkscape"
   style="font-style:normal;font-weight:normal;font-size:12px;font-family:Dialog;color-interpolation:auto;fill:#000000;fill-opacity:1;stroke:#000000;stroke-width:1;stroke-linecap:square;stroke-linejoin:miter;stroke-miterlimit:10;stroke-dasharray:none;stroke-dashoffset:0;stroke-opacity:1;color-rendering:auto;image-rendering:auto;shape-rendering:auto;text-rendering:auto"
   width="800"
   height="550"
   version="1.1"
   id="svg50"
   sodipodi:docname="logo.svg"
   inkscape:version="1.0.2-2 (e86c870879, 2021-01-15)">
  <sodipodi:namedview
     pagecolor="#ffffff"
     bordercolor="#666666"
     borderopacity="1"
     objecttolerance="10"
     gridtolerance="10"
     guidetolerance="10"
     inkscape:pageopacity="0"
     inkscape:pageshadow="2"
     inkscape:window-width="1920"
     inkscape:window-height="1001"
     id="namedview112"
     showgrid="false"
     inkscape:zoom="0.73362329"
     inkscape:cx="618.31402"
     inkscape:cy="532.21725"
     inkscape:window-x="-9"
     inkscape:window-y="-9"
     inkscape:window-maximized="1"
     inkscape:current-layer="svg50" />
  <metadata
     id="metadata54">
    <rdf:RDF>
      <cc:Work
         rdf:about="">
        <dc:format>image/svg+xml</dc:format>
        <dc:type
           rdf:resource="http://purl.org/dc/dcmitype/StillImage" />
        <dc:title></dc:title>
      </cc:Work>
    </rdf:RDF>
  </metadata>
  <!--Generated by the Batik Graphics2D SVG Generator-->
  <defs
     id="genericDefs" />
  <g
     id="g48"
     transform="translate(0,-146)">
    <g
       style="stroke-width:8;stroke-linecap:round"
       transform="translate(400,400)"
       id="g46">
      <path
         style="fill:none"
         d="m 0,0 c 16.6667,-16.6667 83.3333,-66.9924 100,-100 16.6667,-33.0076 0,-81.1119 0,-98.0456 0,-16.9337 16.6667,-23.231 0,-3.5568 C 83.3333,-181.9281 16.6667,-113.6004 0,-80 -16.6667,-46.3996 0,-13.3333 0,0"
         id="path38" />
      <path
         d="m 0,0 c 16.6667,-16.6667 83.3333,-67.3315 100,-100 16.6667,-32.6685 0,-78.6976 0,-96.0112 0,-17.3136 16.6667,-27.2055 0,-7.8703 C 83.3333,-184.5463 16.6667,-113.9802 0,-80 -16.6667,-46.0197 0,-13.3333 0,0"
         style="fill:none"
         transform="scale(-1,1)"
         id="path40" />
      <path
         d="m 0,0 c 16.6667,-16.6667 83.3333,-67.0907 100,-100 16.6667,-32.9093 0,-81.4586 0,-97.4559 0,-15.9973 16.6667,-18.1037 0,1.4723 C 83.3333,-176.4076 16.6667,-112.6639 0,-80 -16.6667,-47.3361 0,-13.3333 0,0"
         style="fill:none"
         transform="scale(-1)"
         id="path42" />
      <path
         d="m 0,0 c 16.6667,-16.6667 83.3333,-67.1743 100,-100 16.6667,-32.8257 0,-80.8416 0,-96.9544 0,-16.1127 16.6667,-19.2144 0,0.278 C 83.3333,-177.184 16.6667,-112.7794 0,-80 -16.6667,-47.2206 0,-13.3333 0,0"
         style="fill:none"
         transform="scale(1,-1)"
         id="path44" />
    </g>
  </g>
  <path
     d="m 16.706909,7.36249 c -5.580277,0 -10.127169,4.39188 -10.127169,9.71382 v 456.2393 c 0,5.16692 4.546892,9.61047 10.023831,9.61047 H 151.46026 v -8.52542 H 16.706909 c -0.775038,0 -1.291731,-0.51669 -1.291731,-1.18839 V 17.02464 c 0,-0.72337 0.516693,-1.13673 1.240062,-1.13673 h 768.83814 c 0.77504,0 1.24006,0.41336 1.24006,1.1884 v 456.2393 c 0,0.6717 -0.51669,1.13672 -1.24006,1.13672 H 643.91969 v 8.47375 h 141.57369 c 5.52861,0 10.0755,-4.44355 10.0755,-9.71381 V 17.02464 c 0,-5.27027 -4.54689,-9.66215 -10.02383,-9.66215 z"
     white-space="normal"
     style="text-indent:0;text-decoration:none;text-decoration-line:none;text-decoration-style:solid;text-decoration-color:#000000;text-transform:none;isolation:auto;mix-blend-mode:normal;stroke-width:1"
     color="#000000"
     solid-color="#000000"
     id="path56" />
  <text
     xml:space="preserve"
     style="font-style:normal;font-variant:normal;font-weight:normal;font-stretch:normal;font-size:91.0591px;line-height:1.25;font-family:'Berlin Sans FB Demi';-inkscape-font-specification:'Berlin Sans FB Demi';fill:#000000;fill-opacity:1;stroke:none;stroke-width:2.27648"
     x="221.70256"
     y="545.22699"
     id="text76"><tspan
       id="tspan74"
       x="221.70256"
       y="545.22699"
       style="stroke-width:1.5">Cool Lab</tspan></text>
</svg>
