<?xml version="1.0" standalone="no"?>
<!DOCTYPE svg PUBLIC "-//W3C//DTD SVG 20010904//EN"
 "http://www.w3.org/TR/2001/REC-SVG-20010904/DTD/svg10.dtd">
<svg version="1.0" xmlns="http://www.w3.org/2000/svg"
 width="1748.000000pt" height="1748.000000pt" viewBox="0 0 1748.000000 1748.000000"
 preserveAspectRatio="xMidYMid meet">
<metadata>
Created by potrace 1.14, written by Peter Selinger 2001-2017
</metadata>
<g transform="translate(0.000000,1748.000000) scale(0.100000,-0.100000)"
fill="#000000" stroke="none">
<path d="M4485 17365 c-5 -2 -23 -6 -38 -9 -31 -7 -100 -73 -91 -87 3 -5 1 -9
-5 -9 -5 0 -9 -12 -9 -27 0 -16 -1 -32 -2 -38 -1 -5 -2 -12 0 -15 1 -3 3 -16
6 -30 5 -32 43 -108 67 -134 9 -11 17 -23 17 -28 0 -4 7 -16 15 -25 117 -142
163 -226 171 -313 1 -14 5 -36 8 -50 9 -36 10 -216 1 -275 -3 -27 -8 -66 -10
-85 -3 -38 -13 -101 -20 -140 -3 -13 -7 -42 -11 -65 -3 -22 -9 -58 -14 -80 -4
-22 -8 -47 -9 -55 0 -8 -9 -62 -20 -120 -29 -155 -30 -161 -36 -205 -4 -22
-13 -71 -20 -110 -8 -38 -17 -90 -20 -115 -4 -25 -11 -67 -16 -93 -5 -26 -8
-51 -8 -55 1 -4 0 -9 -1 -12 -4 -11 -19 -101 -24 -150 -12 -101 -17 -140 -20
-156 -2 -11 -7 -48 -11 -84 -4 -36 -8 -78 -10 -95 -6 -44 -16 -152 -20 -213
-3 -29 -7 -57 -10 -62 -4 -6 -1 -10 5 -10 6 0 8 -5 4 -12 -15 -23 -21 -475 -9
-623 3 -44 8 -100 9 -125 8 -108 25 -232 54 -385 3 -16 5 -38 6 -47 0 -10 3
-18 7 -18 3 0 6 -13 7 -30 0 -16 4 -35 9 -42 4 -7 9 -22 10 -33 2 -11 15 -57
29 -102 14 -45 27 -92 29 -104 2 -11 9 -27 16 -35 6 -8 8 -14 4 -14 -4 0 -3
-6 3 -12 6 -7 11 -17 11 -23 1 -36 203 -444 224 -453 4 -2 7 -10 7 -18 0 -8 5
-14 10 -14 6 0 10 -4 10 -9 0 -12 61 -105 72 -109 4 -2 8 -10 8 -18 0 -8 5
-14 10 -14 6 0 10 -7 10 -15 0 -8 4 -15 8 -15 4 0 16 -14 26 -31 24 -41 238
-312 311 -395 11 -12 38 -43 60 -69 21 -25 48 -57 60 -69 11 -12 54 -60 95
-106 161 -180 444 -466 723 -733 179 -171 185 -177 323 -303 107 -99 114 -105
230 -209 43 -38 88 -79 100 -90 56 -51 169 -152 188 -168 12 -10 45 -39 75
-65 30 -26 65 -56 77 -67 94 -84 172 -152 238 -208 27 -23 54 -46 60 -52 6 -5
45 -39 86 -75 41 -36 78 -69 82 -75 4 -5 8 -7 8 -4 0 5 76 -60 132 -113 15
-14 28 -24 28 -22 0 3 18 -13 40 -35 22 -22 40 -36 40 -33 0 4 4 2 8 -3 4 -6
41 -39 82 -75 41 -36 80 -69 86 -75 6 -5 35 -30 64 -55 29 -25 61 -52 69 -60
9 -9 47 -43 86 -75 38 -33 75 -64 81 -70 6 -5 48 -44 94 -85 46 -41 90 -81 98
-89 12 -13 9 -19 -26 -50 -50 -45 -163 -144 -217 -191 -22 -19 -42 -37 -45
-40 -3 -3 -52 -46 -110 -95 -136 -117 -160 -138 -174 -150 -15 -14 -143 -124
-180 -155 -16 -14 -42 -36 -57 -50 -15 -14 -44 -38 -64 -55 -21 -16 -45 -37
-55 -45 -44 -38 -134 -116 -144 -125 -6 -6 -94 -82 -196 -170 -102 -87 -187
-162 -190 -165 -3 -3 -43 -39 -90 -80 -47 -41 -87 -77 -90 -80 -3 -3 -43 -39
-90 -79 -96 -85 -103 -91 -181 -164 -31 -28 -82 -74 -114 -102 -31 -27 -86
-77 -120 -110 -35 -33 -127 -121 -206 -195 -161 -153 -514 -505 -603 -601 -32
-35 -84 -91 -115 -124 -31 -33 -90 -98 -131 -145 -41 -47 -81 -92 -90 -101 -8
-8 -24 -28 -35 -43 -11 -16 -27 -35 -35 -44 -8 -8 -54 -65 -103 -126 -48 -61
-94 -118 -101 -127 -12 -14 -140 -200 -166 -239 -5 -8 -21 -32 -35 -53 -14
-21 -25 -42 -25 -47 0 -4 -3 -10 -7 -12 -25 -11 -170 -312 -227 -470 -25 -70
-46 -132 -46 -137 0 -6 -7 -30 -14 -53 -8 -24 -18 -56 -21 -73 -4 -16 -8 -39
-11 -50 -2 -11 -11 -51 -19 -90 -8 -38 -16 -79 -19 -90 -2 -11 -7 -42 -10 -70
-4 -27 -9 -57 -11 -65 -2 -8 -7 -44 -10 -80 -3 -36 -8 -81 -10 -100 -21 -197
-22 -611 0 -880 2 -25 6 -79 9 -120 3 -41 8 -88 11 -105 2 -16 7 -57 10 -90 6
-63 11 -102 20 -158 3 -19 7 -49 10 -68 9 -80 16 -136 21 -159 3 -14 7 -36 9
-50 10 -72 24 -161 31 -194 2 -11 7 -37 10 -56 2 -19 9 -57 14 -85 5 -27 11
-63 14 -80 3 -16 7 -41 11 -55 3 -14 8 -41 11 -60 2 -19 7 -48 10 -65 2 -16 7
-41 9 -55 2 -14 6 -38 10 -55 12 -66 15 -82 21 -120 3 -22 7 -51 10 -65 11
-63 15 -90 19 -131 3 -24 6 -58 9 -76 3 -26 -9 -48 -78 -140 -70 -95 -124
-178 -115 -178 1 0 -10 -19 -24 -42 -15 -24 -27 -47 -27 -52 0 -5 -7 -26 -17
-47 -41 -97 -31 -206 24 -273 64 -78 189 -94 283 -39 46 28 134 118 156 160 9
18 20 35 24 38 13 10 71 161 65 170 -3 6 -2 10 3 10 5 0 9 6 10 13 1 6 4 27 7
45 10 62 14 97 16 144 1 33 9 55 26 75 21 24 149 163 238 259 111 119 277 295
315 334 25 26 122 127 215 225 94 97 199 208 235 245 152 158 384 401 462 484
45 49 113 120 150 158 38 39 68 71 68 73 0 1 24 27 53 57 48 51 220 235 277
298 14 15 66 72 116 126 50 55 102 111 115 125 112 124 167 185 182 203 26 30
127 143 157 176 14 15 44 49 67 77 24 27 53 61 65 75 13 14 42 47 65 74 22 27
49 58 60 69 15 17 103 122 178 214 11 14 37 44 57 67 21 22 38 46 38 53 0 6 4
11 9 11 5 0 27 24 49 53 22 30 47 61 56 70 9 8 16 20 16 26 0 6 4 11 9 11 4 0
19 15 32 34 30 42 201 267 214 282 6 6 37 51 70 99 33 48 70 99 83 113 12 13
22 31 22 38 0 7 4 14 8 16 4 2 37 47 72 102 55 84 66 96 75 81 50 -86 264
-398 277 -403 5 -2 8 -8 8 -13 0 -5 29 -47 65 -94 36 -46 65 -86 65 -89 0 -3
16 -22 35 -43 19 -21 35 -44 35 -50 0 -7 3 -13 8 -13 4 0 30 -29 57 -65 27
-36 52 -65 57 -65 4 0 8 -5 8 -10 0 -10 108 -148 140 -180 9 -8 31 -35 50 -60
19 -25 39 -50 45 -56 5 -6 26 -31 47 -55 20 -24 44 -54 55 -66 10 -12 34 -40
53 -63 19 -24 44 -52 55 -64 11 -12 45 -51 75 -86 30 -36 57 -67 60 -70 3 -3
34 -39 70 -80 36 -41 70 -80 75 -86 6 -6 42 -46 80 -89 39 -44 80 -90 93 -104
22 -25 114 -126 177 -195 17 -18 66 -72 110 -121 92 -101 97 -106 225 -245 52
-56 115 -123 140 -149 25 -26 99 -105 165 -176 66 -70 138 -147 160 -170 22
-23 103 -108 180 -190 77 -81 169 -178 205 -215 36 -38 126 -133 200 -211 74
-78 153 -161 175 -184 93 -97 359 -381 451 -481 101 -109 128 -144 130 -171
10 -107 29 -194 59 -269 25 -60 59 -127 73 -142 6 -7 12 -17 12 -22 0 -16 119
-128 159 -148 155 -81 316 20 306 193 -4 65 -6 74 -24 120 -35 90 -122 231
-219 355 -28 35 -49 67 -47 71 2 3 7 37 10 76 3 38 8 81 10 94 3 13 8 44 11
69 3 25 8 54 11 65 2 11 6 34 8 50 12 76 14 92 19 115 3 13 9 42 12 65 13 78
23 135 35 195 5 25 11 61 14 80 2 19 7 46 10 60 3 14 7 39 10 55 3 17 7 44 10
60 3 17 8 44 10 60 3 17 7 46 11 65 3 19 7 49 10 65 2 17 6 46 9 65 4 19 8 49
10 65 2 17 4 30 5 30 1 0 3 18 5 40 1 22 5 54 8 70 6 31 15 98 22 175 3 25 7
63 10 85 8 70 16 168 19 237 2 36 7 71 10 76 4 6 2 13 -4 17 -6 4 -7 13 -1 23
5 9 7 152 6 317 -3 288 -7 372 -19 460 -3 22 -8 63 -11 91 -3 28 -7 59 -9 70
-2 10 -7 39 -11 64 -8 47 -9 54 -26 135 -6 28 -12 59 -14 70 -4 27 -40 151
-73 250 -14 44 -27 82 -27 85 -1 3 -7 18 -13 33 -7 16 -12 30 -12 33 0 2 -17
41 -38 87 -21 45 -45 97 -53 115 -7 17 -17 32 -21 32 -5 0 -8 7 -8 15 0 9 -11
32 -23 53 -13 20 -32 51 -43 67 -10 17 -19 32 -19 35 -2 14 -245 363 -265 380
-3 3 -27 32 -52 65 -25 33 -54 70 -64 82 -11 12 -35 41 -54 64 -19 23 -43 51
-53 63 -10 11 -36 42 -58 67 -205 241 -627 672 -1005 1026 -142 133 -138 128
-368 338 -70 63 -197 177 -236 211 -25 21 -50 44 -56 49 -6 6 -37 33 -70 62
-32 28 -68 60 -80 70 -11 10 -88 76 -170 147 -82 72 -169 148 -194 170 -25 23
-70 61 -99 86 -30 25 -59 50 -65 55 -19 17 -90 78 -151 130 -59 50 -97 82
-215 185 -35 30 -73 63 -84 72 -31 26 -96 82 -138 120 -20 18 -48 42 -61 53
-63 54 -165 144 -205 183 -24 23 -49 42 -54 42 -6 0 0 10 14 23 107 97 207
187 288 257 52 45 109 94 125 109 17 14 80 68 140 119 61 52 121 103 135 115
14 12 77 66 140 120 63 54 140 121 170 147 30 27 66 58 80 69 37 31 70 59 116
100 23 20 65 56 94 81 29 25 70 61 92 80 49 45 56 51 153 134 79 69 146 130
192 174 12 13 23 20 23 17 0 -3 17 11 38 32 21 21 58 56 83 78 24 21 91 82
149 135 57 52 110 100 116 105 148 131 721 698 874 865 47 51 94 102 105 114
11 12 49 55 85 96 36 41 68 77 71 80 8 7 157 187 189 229 13 18 33 43 45 56
11 12 40 51 65 86 24 34 51 68 58 76 7 7 10 13 7 13 -6 0 8 19 55 77 6 7 10
17 10 23 0 5 5 10 10 10 6 0 10 7 10 15 0 8 5 15 10 15 6 0 10 7 10 15 0 8 5
15 10 15 6 0 10 6 10 14 0 8 6 21 13 28 17 17 104 172 145 260 90 190 182 465
208 623 3 17 8 37 11 45 3 8 7 26 8 40 2 14 8 57 15 95 6 39 13 84 15 100 9
71 16 135 21 200 9 106 8 655 -1 785 -4 63 -9 130 -9 148 -1 17 -3 32 -6 32
-3 0 -5 19 -6 43 -1 49 -17 201 -30 282 -3 17 -7 48 -9 71 -2 22 -7 56 -10 75
-4 19 -8 43 -9 54 -9 64 -19 133 -22 150 -2 10 -6 35 -9 55 -3 20 -7 47 -10
60 -3 13 -7 40 -10 60 -3 20 -8 47 -10 60 -11 55 -16 87 -20 120 -2 19 -5 35
-6 35 -1 0 -3 9 -5 20 -1 11 -5 31 -8 45 -2 14 -7 41 -10 60 -3 19 -8 45 -10
56 -2 12 -7 38 -10 58 -3 20 -9 52 -12 72 -3 20 -8 46 -10 58 -2 11 -7 41 -10
66 -3 25 -7 52 -9 60 -7 26 -18 123 -19 172 0 27 -4 48 -7 48 -3 0 -5 42 -5
93 l2 92 65 85 c196 254 252 385 214 500 -16 48 -64 99 -103 108 -30 7 -107
10 -117 3 -5 -3 -15 -6 -22 -7 -41 -7 -193 -158 -193 -193 0 -6 -4 -11 -8 -11
-10 0 -68 -115 -78 -154 -3 -14 -10 -28 -14 -31 -4 -3 -16 -38 -25 -80 -12
-50 -27 -85 -45 -105 -15 -17 -44 -50 -63 -73 -19 -23 -46 -54 -58 -68 -84
-92 -177 -195 -192 -213 -10 -12 -55 -61 -100 -110 -45 -49 -89 -97 -97 -106
-23 -26 -159 -175 -210 -230 -25 -26 -70 -76 -100 -110 -30 -34 -74 -82 -97
-106 -23 -25 -73 -79 -110 -121 -37 -42 -79 -88 -93 -103 -14 -14 -56 -61 -95
-105 -89 -100 -184 -203 -212 -233 -13 -12 -23 -25 -23 -27 0 -2 -12 -17 -27
-33 -16 -16 -57 -61 -93 -101 -36 -40 -76 -85 -90 -100 -14 -16 -47 -54 -75
-86 -27 -32 -61 -70 -75 -84 -22 -24 -110 -123 -180 -205 -14 -16 -36 -41 -50
-56 -14 -14 -35 -38 -47 -53 -21 -27 -102 -121 -151 -175 -13 -14 -40 -46 -60
-70 -20 -24 -48 -56 -61 -70 -12 -15 -39 -47 -60 -71 -20 -24 -48 -58 -63 -75
-14 -17 -68 -80 -118 -141 -50 -60 -99 -119 -108 -130 -9 -11 -33 -40 -52 -65
-19 -25 -45 -55 -57 -66 -13 -12 -23 -24 -23 -28 0 -4 -9 -17 -21 -29 -11 -12
-39 -47 -62 -77 -23 -30 -47 -59 -53 -65 -6 -5 -42 -50 -80 -100 -38 -49 -71
-92 -74 -95 -4 -3 -75 -97 -159 -210 -84 -113 -158 -212 -164 -220 -26 -35
-80 -114 -176 -256 -55 -82 -104 -153 -109 -159 -4 -5 -11 -17 -15 -25 -23
-46 -78 -130 -86 -130 -3 0 -12 12 -19 28 -13 29 -93 160 -111 179 -6 7 -11
15 -11 17 0 10 -296 445 -310 456 -3 3 -22 28 -40 55 -19 28 -37 51 -42 53 -4
2 -8 8 -8 14 0 5 -6 15 -12 22 -7 7 -22 25 -33 40 -75 103 -220 292 -227 294
-4 2 -8 10 -8 17 0 7 -4 15 -8 17 -4 2 -23 23 -42 48 -19 25 -37 47 -40 50 -3
3 -18 23 -35 45 -16 22 -32 42 -35 45 -3 3 -57 70 -120 150 -63 80 -122 152
-130 160 -9 8 -29 33 -45 55 -17 22 -32 42 -35 45 -4 3 -53 61 -109 130 -57
69 -108 127 -112 128 -5 2 -9 8 -9 12 0 5 -12 22 -26 37 -14 15 -40 45 -58 67
-17 21 -35 43 -41 50 -61 70 -86 99 -120 140 -22 27 -45 54 -50 60 -6 6 -33
38 -60 70 -28 33 -59 69 -70 81 -11 11 -42 47 -70 80 -27 33 -57 66 -65 75 -8
9 -37 43 -65 75 -27 33 -59 69 -70 81 -11 11 -31 34 -45 51 -14 17 -52 62 -86
99 -34 38 -96 110 -140 159 -43 50 -87 97 -96 106 -10 9 -18 19 -18 22 0 3
-15 20 -32 39 -18 18 -62 66 -98 107 -36 41 -76 86 -89 100 -13 14 -51 57 -85
95 -33 38 -72 81 -86 96 -27 30 -140 157 -180 202 -14 16 -43 48 -65 71 -36
38 -135 149 -211 236 -16 18 -40 45 -54 60 -14 15 -59 65 -100 111 -41 46 -84
93 -95 106 -11 12 -42 48 -70 80 -27 32 -69 78 -92 103 -23 25 -63 89 -88 141
-77 156 -152 258 -227 306 -34 22 -88 35 -113 29z m585 -1133 c27 -32 148
-166 200 -223 14 -14 39 -42 55 -61 17 -19 64 -71 105 -117 41 -46 87 -98 103
-115 15 -17 42 -47 60 -67 17 -19 59 -66 92 -103 33 -37 74 -83 91 -102 17
-19 53 -59 80 -90 27 -30 64 -72 82 -92 18 -20 54 -61 80 -91 26 -29 62 -69
80 -88 17 -19 32 -36 32 -38 0 -2 10 -15 23 -27 12 -13 47 -52 77 -87 30 -35
66 -76 80 -91 14 -15 44 -50 67 -76 22 -27 53 -62 68 -79 28 -32 42 -48 119
-139 27 -31 61 -70 75 -86 14 -16 37 -43 51 -60 14 -17 37 -44 53 -60 15 -16
27 -31 27 -34 0 -3 14 -19 30 -34 17 -16 30 -34 30 -40 0 -6 4 -12 8 -14 9 -3
116 -126 182 -208 19 -24 40 -48 45 -54 10 -10 188 -226 210 -254 5 -7 17 -21
25 -30 9 -9 33 -39 55 -67 42 -53 60 -75 85 -105 8 -9 26 -32 40 -51 14 -18
33 -41 43 -51 9 -10 17 -20 17 -22 0 -2 9 -15 20 -28 19 -22 190 -241 237
-304 12 -16 68 -90 123 -164 56 -74 108 -143 116 -153 8 -9 14 -21 14 -26 0
-5 4 -11 8 -13 15 -6 216 -298 347 -503 100 -156 105 -164 105 -169 0 -2 23
-43 50 -91 49 -85 58 -112 42 -130 -4 -6 -19 -37 -31 -70 -13 -33 -32 -79 -42
-102 -11 -23 -21 -50 -22 -60 -2 -10 -7 -25 -10 -33 -22 -59 -82 -272 -91
-325 -3 -16 -8 -42 -11 -57 -3 -16 -7 -40 -10 -55 -2 -16 -7 -46 -10 -68 -4
-22 -8 -56 -10 -75 -2 -19 -4 -35 -5 -35 -2 0 -6 -42 -14 -170 -15 -220 -7
-493 20 -690 3 -22 7 -60 9 -85 2 -25 7 -56 10 -70 3 -14 8 -38 9 -55 3 -27
30 -180 40 -230 25 -120 39 -183 43 -200 2 -11 9 -39 13 -62 5 -23 16 -68 24
-100 8 -32 17 -69 20 -83 3 -14 10 -42 15 -62 10 -43 4 -42 -51 7 -18 17 -78
69 -133 116 -55 48 -113 98 -128 113 -15 14 -30 26 -33 26 -3 0 -22 17 -43 38
-21 20 -46 42 -54 47 -17 12 -278 235 -322 276 -26 25 -110 97 -209 180 -16
13 -39 33 -50 44 -12 11 -53 47 -91 80 -108 93 -126 108 -155 135 -16 14 -59
52 -96 85 -37 33 -77 69 -90 80 -12 11 -50 45 -84 75 -34 30 -72 64 -84 75
-12 11 -69 63 -126 115 -166 151 -265 243 -484 453 -285 274 -521 519 -781
813 -41 47 -73 85 -165 199 -58 72 -108 132 -112 133 -5 2 -8 10 -8 17 0 7 -3
15 -7 17 -18 7 -191 260 -239 348 -10 19 -21 37 -24 40 -8 8 -109 215 -112
231 -2 8 -5 16 -8 19 -8 7 -92 257 -95 278 -1 10 -4 24 -7 32 -6 14 -22 82
-33 143 -3 15 -7 38 -10 52 -12 62 -24 145 -31 205 -3 36 -8 73 -10 83 -3 20
-16 278 -18 380 0 38 2 71 6 73 3 2 3 17 -2 33 -4 16 -7 31 -5 33 2 2 7 60 10
128 3 69 8 141 10 160 2 19 6 73 9 120 4 47 9 96 11 110 2 14 7 50 10 80 4 30
8 66 10 80 8 50 18 136 19 158 1 12 3 22 6 22 3 0 6 12 6 28 2 26 6 61 18 127
3 17 14 84 25 150 26 150 29 170 31 170 1 0 3 12 5 26 2 15 6 44 10 65 4 22 8
50 10 64 2 14 4 25 5 25 2 0 9 37 14 80 3 17 7 40 9 51 3 12 8 39 12 60 9 57
14 92 26 157 5 31 7 62 4 67 -3 6 -2 10 3 10 5 0 9 6 9 13 0 6 4 44 8 82 12
110 13 119 14 134 1 13 51 -36 121 -117z m7596 -32 c3 -25 7 -58 10 -75 40
-229 40 -229 48 -285 4 -25 11 -67 16 -95 14 -71 51 -286 54 -310 2 -11 6 -33
9 -50 3 -16 9 -48 12 -70 18 -126 25 -172 29 -193 3 -13 8 -51 11 -85 4 -34 8
-64 10 -68 2 -3 7 -37 10 -75 3 -38 8 -80 10 -94 2 -14 7 -54 10 -90 3 -36 7
-81 9 -100 2 -19 7 -75 11 -125 4 -49 8 -92 10 -94 3 -2 0 -12 -6 -22 -6 -11
-6 -19 0 -19 9 0 7 -559 -3 -635 -3 -22 -8 -65 -11 -95 -7 -72 -22 -176 -30
-220 -3 -14 -7 -36 -10 -50 -4 -23 -7 -38 -20 -97 -17 -78 -32 -133 -65 -233
-40 -123 -82 -225 -137 -332 -54 -104 -124 -221 -135 -226 -5 -2 -8 -8 -8 -12
0 -11 -101 -157 -184 -265 -73 -95 -78 -102 -91 -118 -5 -7 -28 -35 -50 -62
-22 -28 -44 -54 -50 -60 -6 -5 -47 -52 -90 -102 -43 -51 -83 -93 -87 -93 -4 0
-8 -4 -8 -10 0 -5 -12 -22 -27 -38 -16 -16 -84 -89 -153 -162 -227 -241 -637
-642 -895 -875 -16 -15 -55 -51 -86 -79 -31 -28 -89 -80 -129 -116 -113 -101
-113 -101 -190 -170 -82 -73 -87 -77 -161 -142 -81 -70 -99 -85 -164 -142 -54
-48 -170 -148 -249 -216 -87 -74 -134 -115 -161 -139 -16 -14 -59 -51 -95 -81
-36 -30 -70 -59 -76 -65 -6 -5 -33 -29 -60 -52 -27 -23 -59 -50 -70 -60 -12
-10 -43 -36 -69 -58 -26 -22 -57 -48 -69 -58 -11 -10 -50 -44 -85 -75 -35 -31
-73 -65 -85 -75 -12 -9 -30 -25 -41 -35 -41 -38 -43 -34 -24 51 11 45 22 96
25 112 11 53 12 60 14 63 2 1 3 5 4 10 3 14 19 87 22 102 2 8 8 38 14 65 6 28
13 60 16 73 2 12 6 34 9 50 6 30 34 183 41 223 4 27 10 76 20 154 2 22 6 56 9
75 20 155 27 610 12 740 -5 36 -10 83 -13 105 -2 22 -7 58 -10 80 -4 22 -8 51
-9 65 -2 14 -4 25 -5 25 -1 0 -3 11 -6 25 -4 26 -21 111 -29 145 -22 101 -97
336 -131 412 -8 17 -14 33 -14 36 0 2 -10 26 -22 53 -12 27 -21 56 -19 64 4
21 102 193 115 202 7 5 7 8 1 8 -6 0 -6 3 1 8 5 4 28 36 49 72 21 36 43 66 47
68 4 2 8 10 8 18 0 8 5 14 10 14 6 0 10 6 10 13 0 7 9 23 20 35 11 12 20 23
20 26 0 5 99 150 145 212 16 23 37 51 45 64 8 12 21 28 28 36 6 7 12 17 12 22
0 6 3 12 8 14 4 2 47 57 97 123 49 66 92 122 95 125 3 3 39 50 80 105 41 55
80 105 86 110 5 6 64 77 130 160 65 82 126 159 136 170 19 24 129 155 143 172
6 6 28 33 50 59 22 26 50 59 62 73 13 14 26 31 30 36 15 18 168 199 186 220
10 11 48 55 84 98 37 42 70 77 75 77 4 0 8 6 8 14 0 8 4 16 9 18 5 2 39 39 76
83 37 44 71 82 74 85 4 3 56 61 116 130 60 69 114 130 120 136 5 6 37 42 70
79 33 38 74 83 90 101 17 17 55 60 85 95 30 34 74 83 98 107 23 25 42 47 42
50 0 3 12 17 28 31 15 15 61 64 102 110 41 46 86 96 100 111 60 66 198 218
230 253 19 21 51 56 70 76 19 21 69 75 110 121 41 46 86 95 100 110 14 15 61
67 105 115 102 113 181 200 223 244 17 19 32 40 33 46 1 22 20 -42 25 -85z
m-3821 -4980 c21 -83 27 -113 39 -180 1 -8 6 -40 11 -70 4 -30 9 -64 11 -74
25 -132 24 -646 -1 -796 -6 -37 -18 -143 -19 -162 0 -10 -3 -18 -6 -18 -3 0
-5 -13 -4 -30 1 -16 -1 -30 -4 -30 -4 0 -7 -12 -8 -27 -1 -35 -13 -113 -18
-122 -2 -3 -7 -24 -10 -46 -4 -22 -11 -56 -16 -75 -5 -19 -11 -50 -14 -68 -2
-19 -7 -36 -10 -39 -5 -5 -22 66 -18 80 1 4 -3 7 -9 7 -5 0 -7 4 -4 10 3 5 1
29 -6 52 -6 24 -17 77 -24 118 -7 41 -15 84 -18 95 -2 11 -8 46 -12 79 -3 32
-8 68 -10 80 -5 29 -15 110 -21 176 -30 326 -14 677 41 930 2 8 4 15 5 15 1 0
3 11 5 25 5 35 46 193 54 205 3 6 6 13 7 18 1 4 3 13 4 20 3 16 25 -53 55
-173z m-290 -3047 c-3 -10 -9 -38 -16 -63 -6 -25 -12 -54 -14 -65 -1 -11 -5
-27 -9 -35 -5 -14 -9 -33 -23 -105 -8 -46 -11 -60 -13 -60 -1 0 -3 -9 -5 -20
-2 -11 -20 -99 -39 -195 -34 -169 -43 -221 -50 -285 -2 -16 -6 -43 -9 -60 -3
-16 -9 -61 -13 -100 -31 -313 -34 -543 -8 -815 7 -74 13 -124 18 -146 4 -19
10 -56 21 -119 4 -23 22 -110 29 -140 17 -67 83 -282 95 -310 5 -11 28 -66 51
-123 l43 -104 -23 -41 c-69 -124 -306 -477 -397 -592 -4 -6 -42 -55 -83 -110
-41 -55 -77 -102 -80 -105 -3 -3 -48 -59 -100 -125 -52 -66 -97 -122 -100
-125 -3 -3 -25 -30 -50 -60 -50 -60 -84 -101 -116 -136 -11 -13 -29 -35 -40
-49 -10 -15 -28 -37 -39 -49 -11 -13 -42 -49 -70 -80 -27 -32 -63 -73 -80 -91
-16 -18 -44 -51 -62 -72 -17 -21 -44 -52 -60 -69 -15 -18 -57 -64 -93 -104
-36 -40 -69 -78 -75 -84 -5 -6 -48 -54 -95 -106 -47 -52 -94 -104 -105 -116
-11 -11 -60 -65 -110 -120 -49 -54 -115 -125 -147 -159 -31 -33 -71 -76 -90
-96 -53 -58 -249 -267 -298 -319 -75 -79 -362 -381 -405 -425 -22 -23 -119
-124 -215 -225 -96 -101 -200 -209 -230 -240 -30 -32 -122 -128 -205 -215 -82
-87 -166 -175 -185 -195 -19 -20 -61 -64 -92 -99 -64 -70 -58 -74 -78 44 -10
61 -12 69 -25 140 -8 46 -12 67 -19 115 -3 19 -8 46 -11 60 -3 14 -7 39 -10
55 -2 17 -9 57 -15 90 -6 33 -13 74 -15 90 -2 17 -9 55 -16 85 -6 30 -12 71
-14 90 -7 61 -22 155 -25 155 -1 0 -3 18 -5 40 -1 22 -4 40 -5 40 -1 0 -4 18
-14 115 -4 30 -9 69 -11 85 -2 17 -7 62 -10 100 -3 39 -8 81 -10 95 -28 177
-35 819 -10 948 1 10 6 51 10 92 6 65 12 108 40 265 19 107 74 309 94 345 5 9
12 31 16 50 4 19 11 40 15 45 4 6 11 21 15 35 13 42 120 255 135 270 3 3 17
26 30 53 14 26 28 47 32 47 5 0 8 5 8 11 0 12 79 130 95 141 6 4 7 8 2 8 -4 0
1 9 10 19 25 28 38 44 49 62 9 17 24 36 134 173 35 45 71 90 80 100 8 11 31
38 51 60 20 23 47 54 60 70 13 16 40 46 59 67 19 21 71 77 115 125 123 134
156 168 315 329 135 137 425 418 526 512 23 21 86 79 139 128 54 50 107 98
119 108 12 10 39 35 61 55 23 20 78 71 125 112 46 41 95 86 109 99 14 13 48
42 75 65 26 22 63 55 80 71 18 17 54 48 80 70 26 22 60 51 75 65 40 36 114
101 411 355 146 125 289 248 318 273 75 65 66 57 182 157 58 49 107 92 110 95
10 11 103 90 106 90 1 0 1 -8 -1 -17z m515 -13 c8 -8 169 -149 231 -201 113
-97 145 -125 171 -151 16 -14 28 -24 28 -22 0 3 11 -5 24 -18 13 -13 34 -32
47 -42 45 -36 144 -121 154 -132 5 -5 57 -50 115 -100 57 -49 118 -100 134
-114 16 -14 39 -34 52 -45 12 -11 48 -42 80 -70 32 -27 68 -59 80 -70 12 -11
48 -42 80 -70 31 -27 68 -60 80 -72 13 -13 25 -23 28 -23 3 0 25 -19 50 -42
45 -43 138 -127 186 -168 23 -20 135 -121 205 -185 144 -132 254 -234 334
-310 102 -97 553 -547 637 -636 54 -57 238 -261 264 -292 8 -10 24 -29 35 -41
11 -12 36 -42 55 -66 19 -24 40 -48 45 -54 6 -6 26 -31 45 -56 47 -60 53 -69
65 -83 6 -7 31 -39 55 -72 25 -33 47 -62 50 -65 11 -10 138 -206 182 -280 41
-68 102 -190 141 -280 39 -90 122 -366 132 -435 2 -18 11 -65 22 -120 2 -11 6
-38 9 -60 3 -22 9 -58 13 -81 5 -23 7 -55 7 -73 -1 -17 1 -31 4 -31 3 0 5 -19
5 -43 -1 -23 2 -51 6 -62 3 -11 3 -32 -2 -47 -4 -15 -4 -30 1 -33 5 -3 7 -128
5 -278 -3 -258 -7 -344 -20 -482 -11 -109 -13 -130 -19 -180 -4 -27 -9 -70
-11 -95 -3 -25 -7 -54 -9 -65 -2 -11 -7 -51 -12 -90 -8 -71 -10 -83 -13 -87
-2 -2 -4 -19 -6 -38 -6 -52 -13 -102 -19 -130 -3 -14 -8 -41 -10 -60 -3 -19
-8 -46 -10 -60 -3 -14 -7 -43 -11 -64 -3 -21 -7 -48 -10 -60 -9 -40 -16 -81
-21 -125 -3 -24 -9 -54 -13 -65 -5 -12 -7 -29 -6 -38 2 -10 0 -18 -4 -18 -3 0
-7 -17 -8 -37 0 -21 -8 -72 -17 -113 -8 -41 -17 -88 -20 -105 -13 -93 -11 -92
-85 -13 -36 39 -82 88 -101 108 -171 183 -257 273 -327 346 -46 47 -83 90 -83
96 0 5 -4 6 -10 3 -5 -3 -10 -3 -10 2 0 4 -39 49 -86 98 -47 50 -149 157 -227
239 -78 82 -163 172 -189 199 -27 28 -48 54 -48 59 0 4 -7 8 -15 8 -8 0 -15 3
-15 8 0 4 -37 46 -83 95 -46 48 -82 87 -81 87 0 0 -22 24 -50 53 -28 29 -98
104 -156 166 -58 63 -121 131 -140 151 -19 21 -69 75 -110 120 -151 166 -186
204 -220 241 -19 21 -56 62 -82 91 -26 29 -62 69 -80 89 -19 20 -57 63 -85 95
-28 33 -62 71 -75 85 -12 14 -45 52 -73 84 -27 32 -59 68 -70 80 -11 11 -36
40 -56 65 -20 25 -45 55 -55 66 -11 12 -37 43 -59 69 -22 26 -52 61 -67 76
-15 16 -24 29 -21 29 4 0 0 6 -9 13 -12 10 -94 107 -168 201 -8 10 -31 38 -50
61 -65 78 -70 85 -70 91 0 3 -11 15 -25 28 -14 13 -25 27 -25 32 0 5 -21 32
-45 59 -25 28 -45 53 -45 58 0 4 -11 20 -24 35 -39 43 -196 262 -196 271 0 5
-3 11 -8 13 -8 3 -82 105 -82 113 0 3 -5 11 -10 18 -18 22 -62 90 -130 203
l-67 112 15 33 c8 19 16 36 17 39 1 3 6 16 12 30 41 97 100 258 107 295 1 6
10 35 19 65 9 30 18 66 21 80 3 14 12 54 19 90 8 36 15 72 15 80 0 8 2 24 5
35 10 42 19 106 34 248 16 143 7 622 -13 741 -3 16 -7 50 -9 75 -2 25 -5 46
-5 46 -1 0 -3 14 -5 30 -3 29 -5 45 -26 170 -11 66 -54 278 -68 338 -5 20 -7
37 -4 37 2 0 1 6 -3 12 -5 7 -9 19 -10 28 -1 8 -4 26 -7 40 -3 14 -8 34 -11
45 -2 11 -12 52 -21 90 -9 39 -19 80 -20 93 -3 20 -1 21 13 10 9 -7 19 -15 22
-18z m-247 -520 c14 -69 28 -141 31 -160 3 -19 8 -46 11 -60 4 -14 8 -38 10
-55 4 -38 15 -113 21 -145 3 -14 7 -52 10 -85 3 -33 7 -76 9 -95 9 -67 13
-495 5 -542 -4 -27 -3 -48 2 -48 5 0 6 -6 1 -12 -9 -16 -11 -28 -17 -98 -5
-57 -9 -77 -28 -170 -6 -30 -12 -64 -14 -75 -1 -11 -3 -20 -4 -20 -1 0 -3 -7
-5 -16 -1 -9 -10 -41 -18 -70 -9 -30 -21 -74 -27 -99 -8 -31 -14 -40 -20 -30
-6 12 -56 183 -65 225 -3 16 -17 90 -31 170 -3 16 -7 43 -9 60 -2 16 -4 30 -5
30 -1 0 -3 20 -5 45 -2 25 -6 81 -10 125 -7 90 -7 338 0 430 4 53 10 122 20
220 4 44 15 126 21 160 5 30 8 50 18 115 3 19 8 46 11 60 3 14 10 45 15 70 25
129 41 202 45 198 1 -2 14 -59 28 -128z"/>
</g>
</svg>
