<?xml version="1.0" standalone="no"?>
<!DOCTYPE svg PUBLIC "-//W3C//DTD SVG 20010904//EN"
 "http://www.w3.org/TR/2001/REC-SVG-20010904/DTD/svg10.dtd">
<svg version="1.0" xmlns="http://www.w3.org/2000/svg"
 width="700.000000pt" height="700.000000pt" viewBox="0 0 700.000000 700.000000"
 preserveAspectRatio="xMidYMid meet">
<metadata>
Created by potrace 1.14, written by Peter Selinger 2001-2017
</metadata>
<g transform="translate(0.000000,700.000000) scale(0.100000,-0.100000)"
fill="#000000" stroke="none">
<path d="M2537 5403 c-14 -14 -6 -50 19 -87 38 -56 39 -95 8 -277 -24 -138
-29 -192 -29 -339 0 -153 3 -184 22 -245 59 -186 207 -355 656 -748 125 -109
227 -203 227 -207 0 -5 -69 -68 -152 -141 -549 -475 -694 -644 -744 -867 -24
-107 -15 -350 20 -544 l26 -147 -30 -47 c-44 -70 -38 -124 15 -124 32 0 66 43
79 99 10 47 27 68 227 278 344 363 493 534 577 661 19 28 38 52 41 52 4 0 30
-33 58 -73 98 -142 240 -303 593 -678 155 -164 187 -203 197 -240 18 -67 48
-101 87 -97 27 3 31 7 34 36 2 24 -5 47 -28 82 l-31 48 26 148 c36 201 45 440
21 548 -50 224 -200 395 -794 909 -56 49 -102 92 -102 97 0 5 46 48 102 97
384 332 559 500 659 633 116 155 149 260 148 469 0 75 -6 174 -13 221 -7 47
-21 139 -31 205 l-19 120 33 45 c40 55 41 103 1 108 -31 4 -66 -31 -84 -81 -7
-22 -91 -124 -223 -269 -321 -355 -539 -619 -608 -736 -11 -18 -22 -32 -25
-32 -3 0 -14 15 -25 33 -81 138 -316 426 -677 830 -92 103 -168 191 -168 196
0 5 -12 23 -26 40 -24 29 -52 39 -67 24z m294 -403 c295 -334 429 -497 541
-660 96 -140 92 -127 61 -217 -25 -70 -27 -91 -27 -213 0 -99 6 -158 20 -222
12 -49 16 -84 10 -81 -38 24 -433 378 -531 478 -187 188 -257 290 -291 425
-24 93 -15 328 20 520 14 80 26 149 26 155 0 6 3 6 8 0 5 -6 78 -89 163 -185z
m1540 23 c19 -118 24 -184 24 -323 0 -163 -2 -180 -26 -246 -61 -167 -232
-355 -644 -709 -77 -66 -147 -126 -156 -132 -14 -11 -13 -1 5 75 15 64 20 122
20 222 0 121 -3 143 -27 213 l-27 78 27 47 c73 125 284 383 572 700 91 101
173 192 181 202 8 11 17 19 21 20 3 0 16 -66 30 -147z m-852 -996 c6 -35 11
-87 11 -115 0 -66 -20 -202 -30 -202 -10 0 -30 136 -30 202 0 64 19 178 30
178 4 0 13 -28 19 -63z m-92 -714 c-15 -65 -20 -123 -21 -223 0 -121 3 -144
27 -215 l27 -80 -54 -80 c-97 -143 -274 -344 -622 -709 -119 -124 -134 -136
-138 -115 -24 108 -39 228 -43 364 -9 255 20 338 180 530 88 106 246 258 491
469 93 80 170 146 171 146 2 0 -6 -39 -18 -87z m338 -93 c209 -180 430 -397
498 -489 74 -100 95 -141 118 -232 19 -74 21 -102 16 -244 -5 -136 -35 -367
-50 -382 -5 -4 -285 288 -445 465 -132 146 -257 300 -318 391 l-44 66 27 80
c24 72 27 94 26 215 0 96 -6 160 -20 223 -18 77 -18 86 -4 75 9 -7 97 -83 196
-168z m-246 -5 c6 -42 11 -99 11 -127 0 -63 -19 -178 -30 -178 -11 0 -30 106
-30 171 0 72 20 209 30 209 4 0 13 -34 19 -75z"/>
</g>
</svg>
